<svg xmlns="http://www.w3.org/2000/svg" width="178.382" height="139.284" viewBox="0 0 178.382 139.284">
  <g id="css-code" transform="translate(0 -56)">
    <path id="Tracé_1771" data-name="Tracé 1771" d="M34.618,93.236a2.622,2.622,0,1,0-1.85-.768A2.628,2.628,0,0,0,34.618,93.236Z" transform="translate(-20.829 -20.829)" fill="#f7dad9"/>
    <path id="Tracé_1772" data-name="Tracé 1772" d="M58.618,93.236a2.622,2.622,0,1,0-1.85-.768A2.628,2.628,0,0,0,58.618,93.236Z" transform="translate(-36.451 -20.829)" fill="#f7dad9"/>
    <path id="Tracé_1773" data-name="Tracé 1773" d="M82.618,93.236a2.622,2.622,0,1,0-1.85-.768A2.628,2.628,0,0,0,82.618,93.236Z" transform="translate(-52.073 -20.829)" fill="#f7dad9"/>
    <path id="Tracé_1774" data-name="Tracé 1774" d="M334.167,233.134a5.766,5.766,0,0,1-5.76-5.76V219a11.009,11.009,0,0,0-11-11h-2.793a2.618,2.618,0,1,0,0,5.236h2.793a5.766,5.766,0,0,1,5.76,5.76v8.378a10.976,10.976,0,0,0,3.881,8.378,10.976,10.976,0,0,0-3.881,8.378v8.378a5.766,5.766,0,0,1-5.76,5.76h-2.793a2.618,2.618,0,0,0,0,5.236h2.793a11.009,11.009,0,0,0,11-11V244.13a5.766,5.766,0,0,1,5.76-5.76,2.618,2.618,0,0,0,0-5.236Z" transform="translate(-203.086 -98.939)" fill="#f7dad9"/>
    <path id="Tracé_1775" data-name="Tracé 1775" d="M141.614,227.374V219a5.766,5.766,0,0,1,5.76-5.76h2.793a2.618,2.618,0,0,0,0-5.236h-2.793a11.009,11.009,0,0,0-11,11v8.378a5.766,5.766,0,0,1-5.76,5.76,2.618,2.618,0,1,0,0,5.236,5.766,5.766,0,0,1,5.76,5.76v8.378a11.009,11.009,0,0,0,11,11h2.793a2.618,2.618,0,0,0,0-5.236h-2.793a5.766,5.766,0,0,1-5.76-5.76V244.13a10.976,10.976,0,0,0-3.881-8.378A10.976,10.976,0,0,0,141.614,227.374Z" transform="translate(-83.317 -98.939)" fill="#f7dad9"/>
    <path id="Tracé_1776" data-name="Tracé 1776" d="M290.618,320a2.622,2.622,0,1,0,1.85.768A2.628,2.628,0,0,0,290.618,320Z" transform="translate(-187.464 -171.842)" fill="#f7dad9"/>
    <path id="Tracé_1777" data-name="Tracé 1777" d="M250.618,320a2.622,2.622,0,1,0,1.85.768A2.628,2.628,0,0,0,250.618,320Z" transform="translate(-161.427 -171.842)" fill="#f7dad9"/>
    <path id="Tracé_1778" data-name="Tracé 1778" d="M210.618,320a2.622,2.622,0,1,0,1.85.768A2.622,2.622,0,0,0,210.618,320Z" transform="translate(-135.391 -171.842)" fill="#f7dad9"/>
    <path id="Tracé_1779" data-name="Tracé 1779" d="M114.618,93.236H220.739a2.618,2.618,0,0,0,0-5.236H114.618a2.618,2.618,0,0,0,0,5.236Z" transform="translate(-72.903 -20.829)" fill="#f7dad9"/>
    <path id="Tracé_1780" data-name="Tracé 1780" d="M450.618,93.236H456.2a2.618,2.618,0,1,0,0-5.236h-5.585a2.618,2.618,0,1,0,0,5.236Z" transform="translate(-291.611 -20.829)" fill="#f7dad9"/>
    <path id="Tracé_1781" data-name="Tracé 1781" d="M164.593,56H13.789A13.8,13.8,0,0,0,0,69.789V181.5a13.8,13.8,0,0,0,13.789,13.789h150.8A13.8,13.8,0,0,0,178.382,181.5V69.789A13.8,13.8,0,0,0,164.593,56Zm-150.8,5.236h150.8a8.562,8.562,0,0,1,8.553,8.553v8.553H5.236V69.789A8.562,8.562,0,0,1,13.789,61.236Zm150.8,128.812H13.789A8.562,8.562,0,0,1,5.236,181.5V83.578H173.145V181.5A8.562,8.562,0,0,1,164.593,190.048Z" transform="translate(0)" fill="#f7dad9"/>
  </g>
</svg>
