<svg xmlns="http://www.w3.org/2000/svg" width="751.503" height="59.655" viewBox="0 0 751.503 59.655"><g transform="translate(-581.793 -234)"><g transform="translate(-4 -40)"><line x2="327" transform="translate(606.5 304.5)" fill="none" stroke="#707070" stroke-width="2"/><line x2="327" transform="translate(994.5 304.5)" fill="none" stroke="#707070" stroke-width="2"/><g transform="translate(116 -145)"><g transform="translate(831 419)" fill="#f2cbca"><path d="M 33.25896072387695 29 L 1.741037487983704 29 L 17.5 1.984635710716248 L 33.25896072387695 29 Z" stroke="none"/><path d="M 17.5 3.969270706176758 L 3.482074737548828 28 L 31.51792526245117 28 L 17.5 3.969270706176758 M 17.5 0 L 35 30 L 0 30 L 17.5 0 Z" stroke="none" fill="#f2cbca"/></g><g transform="translate(856.74 433.345) rotate(60)" fill="#f2cbca"><path d="M 33.25896072387695 29 L 1.741037487983704 29 L 17.5 1.984635710716248 L 33.25896072387695 29 Z" stroke="none"/><path d="M 17.5 3.969270706176758 L 3.482074737548828 28 L 31.51792526245117 28 L 17.5 3.969270706176758 M 17.5 0 L 35 30 L 0 30 L 17.5 0 Z" stroke="none" fill="#f2cbca"/></g></g></g><line y1="9.584" x2="10.088" transform="translate(582.5 253.828)" fill="none" stroke="#f2cbca" stroke-width="2"/><line x2="10.088" y2="10.088" transform="translate(582.5 263.412)" fill="none" stroke="#f2cbca" stroke-width="2"/><line y1="9.584" x2="10.088" transform="translate(1332.588 273.5) rotate(180)" fill="none" stroke="#f2cbca" stroke-width="2"/><line x2="10.088" y2="10.088" transform="translate(1332.588 263.916) rotate(180)" fill="none" stroke="#f2cbca" stroke-width="2"/></g></svg>