<svg xmlns="http://www.w3.org/2000/svg" width="174.496" height="136.25" viewBox="0 0 174.496 136.25">
  <g id="php-code" transform="translate(0 -56)">
    <path id="Tracé_1784" data-name="Tracé 1784" d="M34.561,93.122a2.565,2.565,0,1,0-1.81-.751A2.571,2.571,0,0,0,34.561,93.122Z" transform="translate(-21.073 -21.073)" fill="#f7dad9"/>
    <path id="Tracé_1785" data-name="Tracé 1785" d="M58.561,93.122a2.565,2.565,0,1,0-1.81-.751A2.565,2.565,0,0,0,58.561,93.122Z" transform="translate(-36.877 -21.073)" fill="#f7dad9"/>
    <path id="Tracé_1786" data-name="Tracé 1786" d="M82.561,93.122a2.565,2.565,0,1,0-1.81-.751A2.571,2.571,0,0,0,82.561,93.122Z" transform="translate(-52.682 -21.073)" fill="#f7dad9"/>
    <path id="Tracé_1787" data-name="Tracé 1787" d="M164.959,208.75a2.561,2.561,0,0,0-3.622,0L136.75,233.337a2.561,2.561,0,0,0,0,3.622l24.587,24.587a2.561,2.561,0,1,0,3.622-3.622l-22.776-22.776,22.776-22.776A2.561,2.561,0,0,0,164.959,208.75Z" transform="translate(-89.559 -100.095)" fill="#f7dad9"/>
    <path id="Tracé_1788" data-name="Tracé 1788" d="M290.561,352a2.565,2.565,0,1,0,1.81.751A2.571,2.571,0,0,0,290.561,352Z" transform="translate(-189.654 -194.922)" fill="#f7dad9"/>
    <path id="Tracé_1789" data-name="Tracé 1789" d="M258.952,208A18.973,18.973,0,0,0,240,226.952a2.561,2.561,0,1,0,5.122,0,13.83,13.83,0,1,1,13.83,13.83,2.561,2.561,0,0,0-2.561,2.561v5.464a2.561,2.561,0,0,0,5.122,0v-3.075A18.953,18.953,0,0,0,258.952,208Z" transform="translate(-158.045 -100.095)" fill="#f7dad9"/>
    <path id="Tracé_1790" data-name="Tracé 1790" d="M114.561,93.122h103.81a2.561,2.561,0,1,0,0-5.122H114.561a2.561,2.561,0,0,0,0,5.122Z" transform="translate(-73.754 -21.073)" fill="#f7dad9"/>
    <path id="Tracé_1791" data-name="Tracé 1791" d="M450.561,93.122h5.464a2.561,2.561,0,1,0,0-5.122h-5.464a2.561,2.561,0,1,0,0,5.122Z" transform="translate(-295.017 -21.073)" fill="#f7dad9"/>
    <path id="Tracé_1792" data-name="Tracé 1792" d="M161.007,56H13.488A13.5,13.5,0,0,0,0,69.488V178.762A13.5,13.5,0,0,0,13.488,192.25H161.007A13.5,13.5,0,0,0,174.5,178.762V69.488A13.5,13.5,0,0,0,161.007,56ZM13.488,61.122H161.007a8.376,8.376,0,0,1,8.366,8.366v8.366H5.122V69.488A8.376,8.376,0,0,1,13.488,61.122ZM161.007,187.128H13.488a8.376,8.376,0,0,1-8.366-8.366V82.977H169.374v95.785A8.376,8.376,0,0,1,161.007,187.128Z" fill="#f7dad9"/>
  </g>
</svg>
