<svg id="Groupe_1" data-name="Groupe 1" xmlns="http://www.w3.org/2000/svg" width="144.041" height="144.035" viewBox="0 0 144.041 144.035">
  <path id="Tracé_1782" data-name="Tracé 1782" d="M158.4,138.47A19.931,19.931,0,1,0,176.62,150.3,19.766,19.766,0,0,0,158.4,138.47Z" transform="translate(-86.396 -86.384)" fill="#f7dad9"/>
  <path id="Tracé_1783" data-name="Tracé 1783" d="M142.976,59.692a6.155,6.155,0,0,0-7.566-4.92,9.626,9.626,0,0,1-7.6-17.425,6.149,6.149,0,0,0,1.551-8.882,71.545,71.545,0,0,0-15.784-15.259,6.1,6.1,0,0,0-4.8-.992,6.186,6.186,0,0,0-4.009,2.835A9.662,9.662,0,0,1,96.513,19.7,9.65,9.65,0,0,1,87.052,8.058,6.146,6.146,0,0,0,81.879.691a72.181,72.181,0,0,0-21.92.323,6.155,6.155,0,0,0-4.943,7.535,9.606,9.606,0,0,1-.35,5.76,9.645,9.645,0,0,1-12.5,5.56,9.573,9.573,0,0,1-4.608-3.784A6.157,6.157,0,0,0,28.7,14.509,71.5,71.5,0,0,0,13.362,30.265a6.16,6.16,0,0,0,1.859,8.851,9.66,9.66,0,0,1-1.046,17.113,9.745,9.745,0,0,1-6.02.59A6.158,6.158,0,0,0,.718,61.961,71.549,71.549,0,0,0,1,84.006a6.157,6.157,0,0,0,7.63,4.929,9.644,9.644,0,0,1,11.459,12.794,9.578,9.578,0,0,1-3.933,4.689,6.155,6.155,0,0,0-1.659,8.918,71.27,71.27,0,0,0,15.867,15.422,6.163,6.163,0,0,0,8.891-1.946,9.647,9.647,0,0,1,8.35-4.833,9.651,9.651,0,0,1,9.412,11.872,6.152,6.152,0,0,0,5.147,7.5,71.312,71.312,0,0,0,22.129-.359,6.157,6.157,0,0,0,4.893-7.665,9.559,9.559,0,0,1,.274-5.955A9.66,9.66,0,0,1,101.95,123.8a9.631,9.631,0,0,1,4.689,3.93,6.153,6.153,0,0,0,8.933,1.639,71.562,71.562,0,0,0,15.357-15.905,6.16,6.16,0,0,0-1.937-8.85,9.578,9.578,0,0,1-3.944-4.395,9.645,9.645,0,0,1,10.922-13.355,6.173,6.173,0,0,0,1.318.139h0a6.148,6.148,0,0,0,6.105-5.324A72.247,72.247,0,0,0,142.976,59.692ZM81.941,94.333A24.419,24.419,0,1,1,94.327,62.1,24.3,24.3,0,0,1,81.941,94.333Z" transform="translate(0.001 -0.008)" fill="#f7dad9"/>
</svg>
